# xmcd
#
# Track frame offsets:
#	150
#	19533
#	38574
#	57563
#	75531
#	94552
#	116142
#	133631
#	153867
#	174132
#	191321
#	205783
#	218993
#
# Disc length: 3165 seconds
#
# Revision: 14
# Processed by: cddbd v1.5.2PL0 Copyright (c) Steve Scherf et al.
# Submitted via: Jack! The Knife 20 Magnifico
#
DISCID=9d0c5b0d
DTITLE=Megadeth - Super Collider
DYEAR=2013
DGENRE=Metal
TTITLE0=Kingmaker
TTITLE1=Super Collider
TTITLE2=Burn!
TTITLE3=Built For War
TTITLE4=Off The Edge
TTITLE5=Dance In The Rain
TTITLE6=The Beginning Of Sorrow
TTITLE7=The Blackest Crow
TTITLE8=Forget To Remember
TTITLE9=Don't Turn Your Back...
TTITLE10=Cold Sweat
TTITLE11=All I Want
TTITLE12=A House Divided
EXTD=Johnny K
EXTT0=Mustaine, Ellefson
EXTT1=Dave Mustaine
EXTT2=Dave Mustaine
EXTT3=Mustaine, Drover, Broderick
EXTT4=Dave Mustaine
EXTT5=Dave Mustaine
EXTT6=Mustaine, Ellefson, Broderick
EXTT7=Dave Mustaine
EXTT8=Dave Mustaine
EXTT9=Dave Mustaine
EXTT10=Lynott, Sykes
EXTT11=Dave Mustaine
EXTT12=Mustaine, Johnny K
PLAYORDER=
